<?xml version="1.0" encoding="UTF-8" standalone="no"?>
<!-- Generator: Adobe Illustrator 19.2.1, SVG Export Plug-In . SVG Version: 6.00 Build 0)  -->

<svg
   xmlns:dc="http://purl.org/dc/elements/1.1/"
   xmlns:cc="http://creativecommons.org/ns#"
   xmlns:rdf="http://www.w3.org/1999/02/22-rdf-syntax-ns#"
   xmlns:svg="http://www.w3.org/2000/svg"
   xmlns="http://www.w3.org/2000/svg"
   xmlns:sodipodi="http://sodipodi.sourceforge.net/DTD/sodipodi-0.dtd"
   xmlns:inkscape="http://www.inkscape.org/namespaces/inkscape"
   version="1.1"
   id="Layer_1"
   x="0px"
   y="0px"
   viewBox="0 0 3135.4 2046.2"
   style="enable-background:new 0 0 3135.4 2046.2;"
   xml:space="preserve"
   inkscape:version="0.91 r13725"
   sodipodi:docname="aufbruch_fin_edit.svg"><metadata
     id="metadata3639"><rdf:RDF><cc:Work
         rdf:about=""><dc:format>image/svg+xml</dc:format><dc:type
           rdf:resource="http://purl.org/dc/dcmitype/StillImage" /><dc:title></dc:title></cc:Work></rdf:RDF></metadata><defs
     id="defs3637" /><sodipodi:namedview
     pagecolor="#ffffff"
     bordercolor="#666666"
     borderopacity="1"
     objecttolerance="10"
     gridtolerance="10"
     guidetolerance="10"
     inkscape:pageopacity="0"
     inkscape:pageshadow="2"
     inkscape:window-width="1920"
     inkscape:window-height="1031"
     id="namedview3635"
     showgrid="false"
     inkscape:zoom="0.51"
     inkscape:cx="1567.7"
     inkscape:cy="944.6686"
     inkscape:window-x="0"
     inkscape:window-y="25"
     inkscape:window-maximized="1"
     inkscape:current-layer="Layer_1" /><style
     type="text/css"
     id="style3527">
	.st0{fill:#4F508C;}
	.st1{fill:#FFFFFF;}
	.st2{fill:#C62D2E;}
	.st3{fill:#19B14B;}
</style><g
     id="g3529"><path
       d="M130.4,1855.2c-2.3-4.8-5.9-7.3-10.8-7.6c-2.3,0-4.3,0.8-5.9,2.3c-1.9,1.6-2.9,3.7-2.9,6.1c0,1.7,0.6,3.3,1.8,4.8   c1.2,1.5,2.7,2.8,4.5,3.9c1.8,1.1,3.9,2.3,6.3,3.3c2.4,1.1,4.7,2.3,7,3.5c5.3,2.1,9.8,5.1,13.5,8.9c1.9,1.9,3.4,4.1,4.5,6.7   c0.9,2.6,1.4,5.6,1.4,9c-0.1,8.4-2.9,15.2-8.4,20.4c-5.5,5.4-12.3,8.2-20.5,8.3c-6.2-0.1-11.9-1.9-17.1-5.2   c-5.4-3.3-9.3-8-11.8-14.2l13.7-6.5c1.8,3.2,3.9,5.8,6.3,7.8c2.3,2.2,5.3,3.3,8.9,3.3c3.6,0,6.6-1.2,9-3.5c2.4-2.1,3.6-5,3.8-8.7   c0-2.3-0.5-4.2-1.5-5.6c-1.1-1.3-2.5-2.6-4.5-3.9l-15.8-8.7c-4.7-2.5-8.5-5.3-11.5-8.5c-3.1-3.2-4.6-7.6-4.6-13.4   c0.1-7.1,2.6-13.1,7.4-17.9c4.7-4.7,10.4-7.1,17.3-7.2c10.6,0.2,18.2,5.3,22.9,15.2L130.4,1855.2z"
       id="path3531" /><path
       d="M195.7,1832.8c12.9,0.1,23.5,4.5,31.8,13.1c8.5,8.6,12.8,19.5,12.9,33c-0.1,13.2-4.4,24.1-12.9,32.7   c-8.3,8.8-18.9,13.2-31.8,13.4c-12.8-0.1-23.3-4.6-31.7-13.4c-8.6-8.6-12.9-19.5-13-32.7c0.1-13.4,4.5-24.4,13-33   C172.4,1837.3,183,1833,195.7,1832.8z M195.7,1848.7c-8.1,0.1-14.8,3-20.2,8.7c-5.5,5.8-8.4,13-8.5,21.5c0.1,8.3,2.9,15.3,8.5,21.1   c5.4,6,12.1,9,20.2,9.1c8.2-0.1,15-3.2,20.4-9.1c5.4-5.8,8.2-12.8,8.3-21.1c-0.1-8.5-2.9-15.7-8.3-21.5   C210.7,1851.7,204,1848.8,195.7,1848.7z"
       id="path3533" /><path
       d="M322.1,1890.6l24.7-60l24.6,60l24.3-55.1h18.3l-42.6,89.5l-24.6-57.9l-24.7,57.9l-42.7-89.5h18.3L322.1,1890.6z"
       id="path3535" /><path
       d="M428.6,1784.1c3.2,0.1,5.8,1.2,7.9,3.3c2,2.1,3.1,4.9,3.2,8.3c-0.1,3.2-1.2,5.9-3.2,7.9c-2,2.2-4.7,3.3-7.9,3.3   c-3.1,0-5.7-1.1-7.7-3.3c-2.3-2-3.4-4.7-3.4-7.9c0-3.4,1.1-6.2,3.4-8.3C423,1785.4,425.5,1784.3,428.6,1784.1z M436.6,1922h-16.1   v-86.5h16.1V1922z"
       id="path3537" /><path
       d="M464.3,1881.4c0.2,7.6,2.5,14.2,6.9,19.9c4.4,5.8,10.5,8.8,18.3,8.9c6.3,0,11.3-1.5,15.1-4.6c3.9-3,7.2-7,10.1-12.2l13.7,8   c-8.7,15.6-21.7,23.5-38.9,23.7c-12.8-0.1-22.8-4.6-30.1-13.4c-7.4-8.4-11.1-19.1-11.1-32.2c0-13.5,3.5-24.7,10.4-33.3   c6.8-8.7,17-13.2,30.4-13.3c13.4,0.1,23.3,4.5,29.7,13.3c6.4,8.7,9.5,19.6,9.5,32.7v2.6H464.3z M512.1,1869c-0.9-6.7-3.4-12-7.4-16   c-3.9-3.8-9.2-5.7-15.8-5.7c-6.3,0.1-11.6,2.1-15.8,6.1c-4.2,4-6.9,9.2-8.1,15.6H512.1z"
       id="path3539" /><path
       d="M578.6,1761.4h16.1v88.4h0.3c6.8-11.1,16.6-16.7,29.3-17c12.3,0.2,22,4.8,28.9,13.6c6.9,8.8,10.4,19.4,10.5,31.7   c0,12.8-3.4,23.7-10.3,32.5c-6.8,9.3-16.8,14-29.8,14.3c-12.2-0.4-21.7-5.8-28.6-16.4h-0.4v13.5h-16.1V1761.4z M620.3,1910.2   c8.8-0.1,15.6-3.3,20.3-9.5c4.7-5.9,7-13.2,7-22c0-8.8-2.3-16.1-7-22c-4.7-5.9-11.4-8.9-20.2-9c-8.4,0.1-14.9,3.3-19.4,9.4   c-4.8,6.1-7.2,13.3-7.2,21.7c0,8.4,2.3,15.6,7,21.6C605.3,1906.8,611.8,1910,620.3,1910.2z"
       id="path3541" /><path
       d="M685.2,1784.1c3.2,0.1,5.8,1.2,7.9,3.3c2,2.1,3.1,4.9,3.2,8.3c-0.1,3.2-1.2,5.9-3.2,7.9c-2,2.2-4.7,3.3-7.9,3.3   c-3.1,0-5.7-1.1-7.7-3.3c-2.3-2-3.4-4.7-3.4-7.9c0-3.4,1.1-6.2,3.4-8.3C679.5,1785.4,682.1,1784.3,685.2,1784.1z M693.2,1922h-16.1   v-86.5h16.1V1922z"
       id="path3543" /><path
       d="M744.9,1855.2c-2.3-4.8-5.9-7.3-10.8-7.6c-2.3,0-4.3,0.8-5.9,2.3c-1.9,1.6-2.9,3.7-2.9,6.1c0,1.7,0.6,3.3,1.8,4.8   c1.2,1.5,2.7,2.8,4.5,3.9c1.8,1.1,3.9,2.3,6.3,3.3c2.4,1.1,4.7,2.3,7,3.5c5.3,2.1,9.8,5.1,13.5,8.9c1.9,1.9,3.4,4.1,4.5,6.7   c0.9,2.6,1.4,5.6,1.4,9c-0.1,8.4-2.9,15.2-8.4,20.4c-5.5,5.4-12.3,8.2-20.5,8.3c-6.2-0.1-11.9-1.9-17.1-5.2   c-5.4-3.3-9.3-8-11.8-14.2l13.7-6.5c1.8,3.2,3.9,5.8,6.3,7.8c2.3,2.2,5.3,3.3,8.9,3.3c3.6,0,6.6-1.2,9-3.5c2.4-2.1,3.6-5,3.8-8.7   c0-2.3-0.5-4.2-1.5-5.6c-1.1-1.3-2.5-2.6-4.5-3.9l-15.8-8.7c-4.7-2.5-8.5-5.3-11.5-8.5c-3.1-3.2-4.6-7.6-4.6-13.4   c0.1-7.1,2.6-13.1,7.4-17.9c4.7-4.7,10.4-7.1,17.3-7.2c10.6,0.2,18.2,5.3,22.9,15.2L744.9,1855.2z"
       id="path3545" /><path
       d="M789,1761.4v85.7h0.3c2.6-4.7,6.2-8.3,10.8-10.8c4.5-2.3,9.4-3.5,14.5-3.5c11.6,0.1,19.5,3.7,23.8,10.8   c4.1,7,6.1,15.9,5.9,26.8v51.6h-16.1v-49.6c0-3.7-0.1-7.1-0.4-10.4c-0.5-3-1.4-5.5-2.5-7.8c-1.2-2.2-3-3.8-5.5-5   c-2.7-1.1-6-1.6-10.1-1.6c-5.1,0-9.1,1-11.8,3c-3,2-5.1,4.8-6.3,8.3c-1.2,3.3-2,7-2.4,10.9c-0.2,4-0.4,8.2-0.4,12.4v39.8H773   v-160.6H789z"
       id="path3547" /><path
       d="M870.1,1881.4c0.2,7.6,2.5,14.2,6.9,19.9c4.4,5.8,10.5,8.8,18.3,8.9c6.3,0,11.3-1.5,15.1-4.6c3.9-3,7.2-7,10.1-12.2l13.7,8   c-8.7,15.6-21.7,23.5-38.9,23.7c-12.8-0.1-22.8-4.6-30.1-13.4c-7.4-8.4-11.1-19.1-11.1-32.2c0-13.5,3.5-24.7,10.4-33.3   c6.8-8.7,17-13.2,30.4-13.3c13.4,0.1,23.3,4.5,29.7,13.3c6.4,8.7,9.5,19.6,9.5,32.7v2.6H870.1z M917.9,1869c-0.9-6.7-3.4-12-7.4-16   c-3.9-3.8-9.2-5.7-15.8-5.7c-6.3,0.1-11.6,2.1-15.8,6.1c-4.2,4-6.9,9.2-8.1,15.6H917.9z"
       id="path3549" /><path
       d="M958.6,1849.4h0.5c4.3-10.8,11.9-16.4,23-16.6c4.8,0.1,9.2,1.5,13.2,4.2l-7.4,15.2c-2.9-2.3-6.1-3.5-9.8-3.5   c-4.2,0-7.6,0.9-10.1,2.6c-2.6,1.8-4.7,4.3-6.1,7.4c-1.3,3-2.2,6.2-2.6,9.8c-0.5,3.7-0.7,7.4-0.7,10.9v42.6h-16.1v-86.5h16.1   V1849.4z"
       id="path3551" /><path
       d="M1058.5,1867.9l31.6-32.5h21.4l-35.9,35.9l39.5,50.7h-21l-30-39.4l-5.5,5.7v33.7h-16.1v-160.6h16.1V1867.9z"
       id="path3553" /><path
       d="M1196.1,1922h-16.1v-13.4h-0.3c-6.7,10.5-16.2,16-28.5,16.3c-12.8-0.2-22.6-5-29.5-14.3c-7-8.9-10.6-19.7-10.6-32.5   c0.1-12.3,3.7-22.9,10.7-31.7c6.9-8.9,16.5-13.4,28.8-13.6c12.5,0.2,22.2,5.9,29,17h0.4v-14.4l16.1,0V1922z M1153.7,1910.2   c8.8-0.1,15.5-3.3,20.2-9.5c4.7-5.9,7-13.2,7-22c0-8.8-2.3-16.1-7-22c-4.7-5.9-11.4-8.9-20.2-9c-8.4,0.1-14.9,3.3-19.4,9.4   c-4.7,6.1-7.1,13.3-7.1,21.7c0,8.4,2.3,15.6,6.9,21.6C1138.7,1906.8,1145.2,1910,1153.7,1910.2z"
       id="path3555" /><path
       d="M1227.3,1847.1h0.4c2.6-4.7,6.2-8.3,10.8-10.7c4.5-2.3,9.4-3.5,14.5-3.5c11.6,0.1,19.5,3.7,23.8,10.8   c4.1,7,6.1,15.9,5.9,26.8v51.6h-16.1v-49.6c0-3.7-0.1-7.1-0.4-10.4c-0.5-3-1.4-5.5-2.5-7.8c-1.2-2.2-3-3.8-5.5-5   c-2.7-1.1-6-1.6-10.1-1.6c-5.1,0-9.1,1-11.8,3c-3,2-5.1,4.8-6.3,8.3c-1.2,3.3-2,7-2.4,10.9c-0.2,4-0.4,8.2-0.4,12.4v39.8h-16.1   v-86.5h16.1V1847.1z"
       id="path3557" /><path
       d="M1314.8,1847.1h0.4c2.6-4.7,6.2-8.3,10.8-10.7c4.5-2.3,9.4-3.5,14.5-3.5c11.6,0.1,19.5,3.7,23.8,10.8   c4.1,7,6.1,15.9,5.9,26.8v51.6h-16.1v-49.6c0-3.7-0.1-7.1-0.4-10.4c-0.5-3-1.4-5.5-2.5-7.8c-1.2-2.2-3-3.8-5.5-5   c-2.7-1.1-6-1.6-10.1-1.6c-5.1,0-9.1,1-11.8,3c-3,2-5.1,4.8-6.3,8.3c-1.2,3.3-2,7-2.4,10.9c-0.2,4-0.4,8.2-0.4,12.4v39.8h-16.1   v-86.5h16.1V1847.1z"
       id="path3559" /><path
       d="M1440.1,1881.4c0.2,7.6,2.5,14.2,6.9,19.9c4.4,5.8,10.5,8.8,18.3,8.9c6.3,0,11.3-1.5,15.1-4.6c3.9-3,7.2-7,10.1-12.2   l13.7,8c-8.7,15.6-21.7,23.5-38.9,23.7c-12.8-0.1-22.8-4.6-30.1-13.4c-7.4-8.4-11.1-19.1-11.1-32.2c0-13.5,3.5-24.7,10.4-33.3   c6.8-8.7,17-13.2,30.4-13.3c13.4,0.1,23.3,4.5,29.7,13.3c6.4,8.7,9.5,19.6,9.5,32.7v2.6H1440.1z M1487.9,1869   c-0.9-6.7-3.4-12-7.4-16c-3.9-3.8-9.2-5.7-15.8-5.7c-6.3,0.1-11.6,2.1-15.8,6.1c-4.2,4-6.9,9.2-8.1,15.6H1487.9z"
       id="path3561" /><path
       d="M1545.1,1855.2c-2.3-4.8-5.9-7.3-10.8-7.6c-2.3,0-4.3,0.8-5.9,2.3c-1.9,1.6-2.9,3.7-2.9,6.1c0,1.7,0.6,3.3,1.8,4.8   c1.2,1.5,2.7,2.8,4.5,3.9c1.8,1.1,3.9,2.3,6.3,3.3c2.4,1.1,4.7,2.3,7,3.5c5.3,2.1,9.8,5.1,13.5,8.9c1.9,1.9,3.4,4.1,4.5,6.7   c0.9,2.6,1.4,5.6,1.4,9c-0.1,8.4-2.9,15.2-8.4,20.4c-5.5,5.4-12.3,8.2-20.5,8.3c-6.2-0.1-11.9-1.9-17.1-5.2   c-5.4-3.3-9.3-8-11.8-14.2l13.7-6.5c1.8,3.2,3.9,5.8,6.3,7.8c2.3,2.2,5.3,3.3,8.9,3.3c3.6,0,6.6-1.2,9-3.5c2.4-2.1,3.6-5,3.8-8.7   c0-2.3-0.5-4.2-1.5-5.6c-1.1-1.3-2.5-2.6-4.5-3.9l-15.8-8.7c-4.7-2.5-8.5-5.3-11.5-8.5c-3.1-3.2-4.6-7.6-4.6-13.4   c0.1-7.1,2.6-13.1,7.4-17.9c4.7-4.7,10.4-7.1,17.3-7.2c10.6,0.2,18.2,5.3,22.9,15.2L1545.1,1855.2z"
       id="path3563" /><path
       d="M1633.5,1847.1h0.4c2.6-4.7,6.2-8.3,10.8-10.7c4.5-2.3,9.4-3.5,14.5-3.5c11.6,0.1,19.5,3.7,23.8,10.8   c4.1,7,6.1,15.9,5.9,26.8v51.6h-16.1v-49.6c0-3.7-0.1-7.1-0.3-10.4c-0.5-3-1.4-5.5-2.5-7.8c-1.2-2.2-3-3.8-5.5-5   c-2.7-1.1-6-1.6-10.1-1.6c-5.1,0-9.1,1-11.8,3c-3,2-5.1,4.8-6.3,8.3c-1.2,3.3-2,7-2.4,10.9c-0.2,4-0.4,8.2-0.4,12.4v39.8h-16.1   v-86.5h16.1V1847.1z"
       id="path3565" /><path
       d="M1716.6,1784.1c3.2,0.1,5.8,1.2,7.9,3.3c2,2.1,3.1,4.9,3.2,8.3c-0.1,3.2-1.2,5.9-3.2,7.9c-2,2.2-4.7,3.3-7.9,3.3   c-3.1,0-5.7-1.1-7.7-3.3c-2.3-2-3.4-4.7-3.4-7.9c0-3.4,1.1-6.2,3.4-8.3C1711,1785.4,1713.5,1784.3,1716.6,1784.1z M1724.6,1922   h-16.1v-86.5h16.1V1922z"
       id="path3567" /><path
       d="M1804.2,1860c-6.3-7.6-14.3-11.5-24-11.7c-8,0.1-14.6,3.1-19.9,9c-5.3,6-8,13.1-8.1,21.3c0,9,2.7,16.2,8.2,21.8   c5.4,5.8,12.3,8.8,20.8,8.9c9.3-0.1,17-3.9,23-11.5v21.2c-7.1,3.9-14.8,5.8-23.1,5.8c-12.6-0.2-23.1-4.6-31.5-13.2   c-8.9-8.4-13.3-19.2-13.5-32.3c0.1-13.8,4.5-25,13.3-33.5c8.6-8.6,19.4-13,32.5-13.1c8,0,15.4,1.9,22.2,5.7V1860z"
       id="path3569" /><path
       d="M1831,1761.4v85.7h0.3c2.6-4.7,6.2-8.3,10.8-10.8c4.5-2.3,9.4-3.5,14.5-3.5c11.6,0.1,19.5,3.7,23.8,10.8   c4.1,7,6.1,15.9,5.9,26.8v51.6h-16.1v-49.6c0-3.7-0.1-7.1-0.4-10.4c-0.5-3-1.4-5.5-2.5-7.8c-1.2-2.2-3-3.8-5.5-5   c-2.7-1.1-6-1.6-10.1-1.6c-5.1,0-9.1,1-11.8,3c-3,2-5.1,4.8-6.3,8.3c-1.2,3.3-2,7-2.4,10.9c-0.2,4-0.4,8.2-0.4,12.4v39.8h-16.1   v-160.6H1831z"
       id="path3571" /><path
       d="M1920.8,1922h-16.1v-71h-8.8v-15.5h8.8v-33.2h16.1v33.2h15.8v15.5h-15.8V1922z"
       id="path3573" /><path
       d="M2010.5,1890.6l24.7-60l24.6,60l24.3-55.1h18.3l-42.6,89.5l-24.6-57.9l-24.7,57.9l-42.7-89.5h18.3L2010.5,1890.6z"
       id="path3575" /><path
       d="M2114.9,1881.4c0.2,7.6,2.5,14.2,6.9,19.9c4.4,5.8,10.5,8.8,18.3,8.9c6.3,0,11.3-1.5,15.1-4.6c3.9-3,7.2-7,10.1-12.2   l13.7,8c-8.7,15.6-21.7,23.5-38.9,23.7c-12.8-0.1-22.8-4.6-30.1-13.4c-7.4-8.4-11.1-19.1-11.1-32.2c0-13.5,3.5-24.7,10.4-33.3   c6.8-8.7,17-13.2,30.4-13.3c13.4,0.1,23.3,4.5,29.7,13.3c6.4,8.7,9.5,19.6,9.5,32.7v2.6H2114.9z M2162.8,1869   c-0.9-6.7-3.4-12-7.4-16c-3.9-3.8-9.2-5.7-15.8-5.7c-6.3,0.1-11.6,2.1-15.8,6.1c-4.2,4-6.9,9.2-8.1,15.6H2162.8z"
       id="path3577" /><path
       d="M2198,1784.1c3.2,0.1,5.8,1.2,7.9,3.3c2,2.1,3.1,4.9,3.2,8.3c-0.1,3.2-1.2,5.9-3.2,7.9c-2,2.2-4.7,3.3-7.9,3.3   c-3.1,0-5.7-1.1-7.7-3.3c-2.3-2-3.4-4.7-3.4-7.9c0-3.4,1.1-6.2,3.4-8.3C2192.4,1785.4,2194.9,1784.3,2198,1784.1z M2206,1922h-16.1   v-86.5h16.1V1922z"
       id="path3579" /><path
       d="M2242.4,1922h-16.1v-71h-8.8v-15.5h8.8v-33.2h16.1v33.2h15.8v15.5h-15.8V1922z"
       id="path3581" /><path
       d="M2268.8,1881.4c0.2,7.6,2.5,14.2,6.9,19.9c4.4,5.8,10.5,8.8,18.3,8.9c6.3,0,11.3-1.5,15.1-4.6c3.9-3,7.2-7,10.1-12.2   l13.7,8c-8.7,15.6-21.7,23.5-38.9,23.7c-12.8-0.1-22.8-4.6-30.1-13.4c-7.4-8.4-11.1-19.1-11.1-32.2c0-13.5,3.5-24.7,10.4-33.3   c6.8-8.7,17-13.2,30.4-13.3c13.4,0.1,23.3,4.5,29.7,13.3c6.4,8.7,9.5,19.6,9.5,32.7v2.6H2268.8z M2316.6,1869   c-0.9-6.7-3.4-12-7.4-16c-3.9-3.8-9.2-5.7-15.8-5.7c-6.3,0.1-11.6,2.1-15.8,6.1c-4.2,4-6.9,9.2-8.1,15.6H2316.6z"
       id="path3583" /><path
       d="M2357.3,1849.4h0.5c4.3-10.8,11.9-16.4,23-16.6c4.8,0.1,9.2,1.5,13.3,4.2l-7.4,15.2c-2.9-2.3-6.1-3.5-9.8-3.5   c-4.2,0-7.6,0.9-10.1,2.6c-2.6,1.8-4.7,4.3-6.1,7.4c-1.3,3-2.2,6.2-2.6,9.8c-0.5,3.7-0.7,7.4-0.7,10.9v42.6h-16.1v-86.5h16.1   V1849.4z"
       id="path3585" /><path
       d="M2474.2,1920.4c0.1,15-2.6,27.2-8,36.6c-3,4.6-7.2,8.1-12.6,10.6c-5.2,2.6-11.9,3.9-20.1,4.1c-11.8-0.1-21.4-3.6-28.8-10.6   c-7.4-6.8-11.3-16.3-11.6-28.6h16.1c0,7.8,2.4,13.7,7.1,17.9c4.4,4.3,10.4,6.5,17.9,6.5c9.8-0.1,16.3-3.2,19.6-9.2   c1.8-3,3-6.5,3.6-10.4c0.5-3.7,0.8-7.8,0.8-12.2v-16.4h-0.4c-6.8,10.6-16.3,16.1-28.5,16.4c-12.9-0.2-22.8-5-29.7-14.3   c-6.9-8.9-10.4-19.7-10.4-32.5c0.1-12.3,3.7-22.9,10.7-31.7c6.9-8.9,16.5-13.4,28.7-13.6c12.6,0.2,22.4,6,29.2,17.3h0.4v-14.7   l16.1,0V1920.4z M2431.8,1910.2c8.8-0.1,15.5-3.3,20.2-9.5c4.7-5.9,7-13.2,7-22c0-8.8-2.3-16.1-7-22c-4.7-5.9-11.4-8.9-20.2-9   c-8.4,0.1-14.9,3.3-19.4,9.4c-4.7,6.1-7.1,13.3-7.1,21.7c0,8.4,2.3,15.6,6.9,21.6C2416.7,1906.8,2423.3,1910,2431.8,1910.2z"
       id="path3587" /><path
       d="M2498.9,1881.4c0.2,7.6,2.5,14.2,6.9,19.9c4.4,5.8,10.5,8.8,18.3,8.9c6.3,0,11.3-1.5,15.1-4.6c3.9-3,7.2-7,10.1-12.2   l13.7,8c-8.7,15.6-21.7,23.5-38.9,23.7c-12.8-0.1-22.8-4.6-30.1-13.4c-7.4-8.4-11.1-19.1-11.1-32.2c0-13.5,3.5-24.7,10.4-33.3   c6.8-8.7,17-13.2,30.4-13.3c13.4,0.1,23.3,4.5,29.7,13.3c6.4,8.7,9.5,19.6,9.5,32.7v2.6H2498.9z M2546.8,1869   c-0.9-6.7-3.4-12-7.4-16c-3.9-3.8-9.2-5.7-15.8-5.7c-6.3,0.1-11.6,2.1-15.8,6.1c-4.2,4-6.9,9.2-8.1,15.6H2546.8z"
       id="path3589" /><path
       d="M2586.3,1761.4v85.7h0.3c2.6-4.7,6.2-8.3,10.8-10.8c4.5-2.3,9.4-3.5,14.5-3.5c11.6,0.1,19.5,3.7,23.8,10.8   c4.1,7,6.1,15.9,5.9,26.8v51.6h-16.1v-49.6c0-3.7-0.1-7.1-0.4-10.4c-0.5-3-1.4-5.5-2.5-7.8c-1.2-2.2-3-3.8-5.5-5   c-2.7-1.1-6-1.6-10.1-1.6c-5.1,0-9.1,1-11.8,3c-3,2-5.1,4.8-6.3,8.3c-1.2,3.3-2,7-2.4,10.9c-0.2,4-0.4,8.2-0.4,12.4v39.8h-16.1   v-160.6H2586.3z"
       id="path3591" /><path
       d="M2667.4,1881.4c0.2,7.6,2.5,14.2,6.9,19.9c4.4,5.8,10.5,8.8,18.3,8.9c6.3,0,11.3-1.5,15.1-4.6c3.9-3,7.2-7,10.1-12.2   l13.7,8c-8.7,15.6-21.7,23.5-38.9,23.7c-12.8-0.1-22.8-4.6-30.1-13.4c-7.4-8.4-11.1-19.1-11.1-32.2c0-13.5,3.5-24.7,10.4-33.3   c6.8-8.7,17-13.2,30.4-13.3c13.4,0.1,23.3,4.5,29.7,13.3c6.4,8.7,9.5,19.6,9.5,32.7v2.6H2667.4z M2715.2,1869   c-0.9-6.7-3.4-12-7.4-16c-3.9-3.8-9.2-5.7-15.8-5.7c-6.3,0.1-11.6,2.1-15.8,6.1c-4.2,4-6.9,9.2-8.1,15.6H2715.2z"
       id="path3593" /><path
       d="M2754.8,1847.1h0.3c2.6-4.7,6.2-8.3,10.8-10.7c4.5-2.3,9.4-3.5,14.5-3.5c11.6,0.1,19.5,3.7,23.8,10.8   c4.1,7,6.1,15.9,5.9,26.8v51.6h-16.1v-49.6c0-3.7-0.1-7.1-0.3-10.4c-0.5-3-1.4-5.5-2.5-7.8c-1.2-2.2-3-3.8-5.5-5   c-2.7-1.1-6-1.6-10.1-1.6c-5.1,0-9.1,1-11.8,3c-3,2-5.1,4.8-6.3,8.3c-1.2,3.3-2,7-2.4,10.9c-0.2,4-0.3,8.2-0.3,12.4v39.8h-16.1   v-86.5h16.1V1847.1z"
       id="path3595" /></g><g
     id="g3597"><path
       d="M1021.7,852.4h84.6V1318h1.8c36-58.3,87.3-88.1,154-89.4c64.9,1.3,115.6,25.2,152.2,71.8c36.3,46.3,54.7,101.9,55.3,166.9   c0,67.5-18.1,124.6-54.4,171.2c-36,48.8-88.2,73.9-156.8,75.1c-64.2-1.9-114.4-30.7-150.3-86.5h-1.8v70.8h-84.6V852.4z    M1241.6,1635.8c46.5-0.6,82-17.3,106.6-50c24.6-31.1,36.9-69.6,36.9-115.6c0-46.3-12.3-85-36.9-116.1   c-24.6-31.1-60.1-46.9-106.6-47.6c-44.3,0.6-78.3,17.1-102,49.5c-25.2,32-37.8,70.1-37.8,114.2c0,44.1,12.3,82,36.9,113.7   C1162.3,1617.8,1196.6,1635.1,1241.6,1635.8z"
       id="path3599" /><path
       d="M1621.4,1316.1h2.8c22.5-57,62.8-86.2,121-87.5c25.3,0.6,48.5,8.1,69.8,22.3l-38.8,79.9c-15.1-12.4-32.3-18.5-51.7-18.5   c-22.2,0-39.9,4.6-53.1,13.8c-13.9,9.5-24.6,22.5-32.3,39c-6.8,15.5-11.4,32.7-13.9,51.4c-2.5,19.7-3.7,38.8-3.7,57.6v224h-84.6   v-455.6h84.6V1316.1z"
       id="path3601" /><path
       d="M1914.9,1242.4v252.1c0,17.4,1.5,34.3,4.6,50.4c2.8,17.1,7.9,32.2,15.2,45.2c14.5,27.3,41.9,41.2,82.2,41.9   c21.5,0,39.3-4.3,53.1-12.8c13.2-7,23.2-16.6,30-29c7.7-13,12.8-28.1,15.2-45.2c2.5-16.2,3.7-33,3.7-50.4v-252.1h84.6V1504   c0,63.1-14.9,113.5-44.6,151.2c-30.1,38.4-77.5,57.9-142.2,58.5c-64.7-0.6-111.8-20.1-141.3-58.5c-30.7-37.7-45.7-88.1-45.1-151.2   v-261.6H1914.9z"
       id="path3603" /><path
       d="M2618.4,1371.7c-33.2-40.3-75.3-60.7-126.3-61.4c-42.2,0.6-77.1,16.5-104.8,47.6c-27.7,31.4-41.9,68.8-42.5,112.3   c0,47.3,14.5,85.5,43.4,114.6c28.3,30.8,64.7,46.5,109.3,47.1c49.2-0.6,89.5-20.8,120.9-60.4v111.7c-37.4,20.3-78,30.4-121.5,30.4   c-66.6-1.3-121.8-24.4-165.7-69.4c-46.7-44.1-70.3-100.8-70.9-170.3c0.6-72.6,23.9-131.4,70-176.4c45.1-45.3,102.2-68.3,171.2-69   c42.4,0,81.3,10,116.9,29.9V1371.7z"
       id="path3605" /><path
       d="M2769.1,852.4v451.3h1.8c13.8-24.7,32.7-43.6,56.6-56.6c24-12.4,49.4-18.5,76.5-18.5c61.1,0.6,102.9,19.5,125.3,56.6   c21.5,36.8,31.9,83.9,31.3,141.3V1698h-84.6v-261.1c0-19.3-0.6-37.6-1.8-54.7c-2.8-15.5-7.2-29.2-13.4-40.9   c-6.2-11.4-15.8-20.1-29-26.2c-14.1-5.7-31.8-8.6-53-8.6c-27,0-47.8,5.2-62.2,15.7c-16,10.8-27,25.4-33.2,43.8   c-6.2,17.4-10.3,36.6-12.4,57.6c-1.2,21.2-1.8,43-1.8,65.2V1698h-84.6V852.4H2769.1z"
       id="path3607" /></g><g
     id="g3615"><path
       d="M1882.8,1103.8h-84.6v-70.3h-1.8c-35.3,55.5-85.2,84.1-149.9,86c-67.1-1.3-119-26.3-155.5-75.1   c-37.1-46.6-55.7-103.7-55.7-171.2c0.6-65,19.5-120.6,56.6-166.9c36.5-46.6,87.1-70.5,151.8-71.8c65.9,1.3,116.8,31.1,152.7,89.4   h1.8v-75.6l84.6,0V1103.8z M1659.5,1041.5c46.4-0.6,81.9-17.3,106.4-50c24.6-31.1,36.9-69.6,36.9-115.6c0-46.3-12.3-85-36.9-116.1   c-24.6-31.1-60.1-46.9-106.4-47.6c-44.2,0.6-78.3,17.1-102.3,49.5c-24.9,32-37.3,70.1-37.3,114.2c0,44.1,12.1,82,36.4,113.7   C1580.2,1023.6,1614.6,1040.9,1659.5,1041.5z"
       id="path3617" /><path
       d="M2052.6,648.2v252.1c0,17.4,1.5,34.3,4.6,50.4c2.8,17.1,7.9,32.2,15.2,45.2c14.5,27.3,41.9,41.2,82.2,41.9   c21.6,0,39.3-4.3,53.1-12.8c13.2-7,23.2-16.6,30-29c7.7-13,12.8-28.1,15.2-45.2c2.5-16.2,3.7-33,3.7-50.4V648.2h84.6v261.6   c0,63.1-14.9,113.5-44.6,151.2c-30.1,38.4-77.5,57.9-142.2,58.5c-64.7-0.6-111.8-20.1-141.3-58.5c-30.7-37.7-45.7-88.1-45.1-151.2   V648.2H2052.6z"
       id="path3619" /><path
       d="M2650.6,347.1c-18.1-11.1-37-17.3-56.7-18.5c-15.1,0-26.8,4.3-35.1,12.8c-8,8.2-13.9,18.9-17.5,31.9   c-5.9,27.9-8.5,54.2-7.8,79v196h117.2v81.8h-117.2v373.9h-84.6V729.9h-38.8v-81.8h38.8V426.1c-0.6-50.7,9.6-93.4,30.9-127.9   c20.9-33.6,58-50.7,111.5-51.4c20.9,0,40.7,3.8,59.4,11.4V347.1z"
       id="path3621" /></g><path
     style="fill:#19b14b"
     d="M 836,716.2 815.51373,526.17255 626.3,473.4 842.6,392.5 1059,311.6 947.5,513.9 Z"
     id="polygon3631"
     inkscape:connector-curvature="0"
     sodipodi:nodetypes="ccccccc" /><path
     style="fill:#4f508c;fill-opacity:1"
     d="M 316.97704,1677.2794 270.81333,1491.8096 76.177112,1465.2856 279.45078,1355.6942 482.82355,1246.089 399.90029,1461.6843 Z"
     id="polygon3631-3"
     inkscape:connector-curvature="0"
     sodipodi:nodetypes="ccccccc" /><path
     style="fill:#c62d2e;fill-opacity:1"
     d="M 509.4318,1127.5413 471.15045,940.28576 277.80961,905.5569 485.53479,804.6572 693.3596,703.74809 601.39566,915.64475 Z"
     id="polygon3631-7"
     inkscape:connector-curvature="0"
     sodipodi:nodetypes="ccccccc" /></svg>