<?xml version="1.0" encoding="utf-8"?>
<!-- Generator: Adobe Illustrator 19.2.1, SVG Export Plug-In . SVG Version: 6.00 Build 0)  -->
<svg version="1.1" id="Layer_1" xmlns="http://www.w3.org/2000/svg" xmlns:xlink="http://www.w3.org/1999/xlink" x="0px" y="0px"
	 viewBox="0 0 3135.4 2046.2" style="enable-background:new 0 0 3135.4 2046.2;" xml:space="preserve">
<style type="text/css">
	.st0{fill:#4F508C;}
	.st1{fill:#FFFFFF;}
	.st2{fill:#C62D2E;}
	.st3{fill:#19B14B;}
</style>
<g>
	<path d="M1021.7,852.4h84.6V1318h1.8c36-58.3,87.3-88.1,154-89.4c64.9,1.3,115.6,25.2,152.2,71.8c36.3,46.3,54.7,101.9,55.3,166.9
		c0,67.5-18.1,124.6-54.4,171.2c-36,48.8-88.2,73.9-156.8,75.1c-64.2-1.9-114.4-30.7-150.3-86.5h-1.8v70.8h-84.6V852.4z
		 M1241.6,1635.8c46.5-0.6,82-17.3,106.6-50c24.6-31.1,36.9-69.6,36.9-115.6c0-46.3-12.3-85-36.9-116.1
		c-24.6-31.1-60.1-46.9-106.6-47.6c-44.3,0.6-78.3,17.1-102,49.5c-25.2,32-37.8,70.1-37.8,114.2c0,44.1,12.3,82,36.9,113.7
		C1162.3,1617.8,1196.6,1635.1,1241.6,1635.8z"/>
	<path d="M1621.4,1316.1h2.8c22.5-57,62.8-86.2,121-87.5c25.3,0.6,48.5,8.1,69.8,22.3l-38.8,79.9c-15.1-12.4-32.3-18.5-51.7-18.5
		c-22.2,0-39.9,4.6-53.1,13.8c-13.9,9.5-24.6,22.5-32.3,39c-6.8,15.5-11.4,32.7-13.9,51.4c-2.5,19.7-3.7,38.8-3.7,57.6v224h-84.6
		v-455.6h84.6V1316.1z"/>
	<path d="M1914.9,1242.4v252.1c0,17.4,1.5,34.3,4.6,50.4c2.8,17.1,7.9,32.2,15.2,45.2c14.5,27.3,41.9,41.2,82.2,41.9
		c21.5,0,39.3-4.3,53.1-12.8c13.2-7,23.2-16.6,30-29c7.7-13,12.8-28.1,15.2-45.2c2.5-16.2,3.7-33,3.7-50.4v-252.1h84.6V1504
		c0,63.1-14.9,113.5-44.6,151.2c-30.1,38.4-77.5,57.9-142.2,58.5c-64.7-0.6-111.8-20.1-141.3-58.5c-30.7-37.7-45.7-88.1-45.1-151.2
		v-261.6H1914.9z"/>
	<path d="M2618.4,1371.7c-33.2-40.3-75.3-60.7-126.3-61.4c-42.2,0.6-77.1,16.5-104.8,47.6c-27.7,31.4-41.9,68.8-42.5,112.3
		c0,47.3,14.5,85.5,43.4,114.6c28.3,30.8,64.7,46.5,109.3,47.1c49.2-0.6,89.5-20.8,120.9-60.4v111.7c-37.4,20.3-78,30.4-121.5,30.4
		c-66.6-1.3-121.8-24.4-165.7-69.4c-46.7-44.1-70.3-100.8-70.9-170.3c0.6-72.6,23.9-131.4,70-176.4c45.1-45.3,102.2-68.3,171.2-69
		c42.4,0,81.3,10,116.9,29.9V1371.7z"/>
	<path d="M2769.1,852.4v451.3h1.8c13.8-24.7,32.7-43.6,56.6-56.6c24-12.4,49.4-18.5,76.5-18.5c61.1,0.6,102.9,19.5,125.3,56.6
		c21.5,36.8,31.9,83.9,31.3,141.3V1698h-84.6v-261.1c0-19.3-0.6-37.6-1.8-54.7c-2.8-15.5-7.2-29.2-13.4-40.9
		c-6.2-11.4-15.8-20.1-29-26.2c-14.1-5.7-31.8-8.6-53-8.6c-27,0-47.8,5.2-62.2,15.7c-16,10.8-27,25.4-33.2,43.8
		c-6.2,17.4-10.3,36.6-12.4,57.6c-1.2,21.2-1.8,43-1.8,65.2V1698h-84.6V852.4H2769.1z"/>
</g>
<g>
	<polygon class="st0" points="484.8,1244.7 401.4,1460.1 318,1675.5 197.8,1569.3 77.6,1463 281.2,1353.8 	"/>
	<polygon class="st1" points="272.3,1487.3 295,1582.8 317.7,1678.2 197.5,1571.9 77.3,1465.7 174.8,1476.5 	"/>
</g>
<g>
	<path d="M1882.8,1103.8h-84.6v-70.3h-1.8c-35.3,55.5-85.2,84.1-149.9,86c-67.1-1.3-119-26.3-155.5-75.1
		c-37.1-46.6-55.7-103.7-55.7-171.2c0.6-65,19.5-120.6,56.6-166.9c36.5-46.6,87.1-70.5,151.8-71.8c65.9,1.3,116.8,31.1,152.7,89.4
		h1.8v-75.6l84.6,0V1103.8z M1659.5,1041.5c46.4-0.6,81.9-17.3,106.4-50c24.6-31.1,36.9-69.6,36.9-115.6c0-46.3-12.3-85-36.9-116.1
		c-24.6-31.1-60.1-46.9-106.4-47.6c-44.2,0.6-78.3,17.1-102.3,49.5c-24.9,32-37.3,70.1-37.3,114.2c0,44.1,12.1,82,36.4,113.7
		C1580.2,1023.6,1614.6,1040.9,1659.5,1041.5z"/>
	<path d="M2052.6,648.2v252.1c0,17.4,1.5,34.3,4.6,50.4c2.8,17.1,7.9,32.2,15.2,45.2c14.5,27.3,41.9,41.2,82.2,41.9
		c21.6,0,39.3-4.3,53.1-12.8c13.2-7,23.2-16.6,30-29c7.7-13,12.8-28.1,15.2-45.2c2.5-16.2,3.7-33,3.7-50.4V648.2h84.6v261.6
		c0,63.1-14.9,113.5-44.6,151.2c-30.1,38.4-77.5,57.9-142.2,58.5c-64.7-0.6-111.8-20.1-141.3-58.5c-30.7-37.7-45.7-88.1-45.1-151.2
		V648.2H2052.6z"/>
	<path d="M2650.6,347.1c-18.1-11.1-37-17.3-56.7-18.5c-15.1,0-26.8,4.3-35.1,12.8c-8,8.2-13.9,18.9-17.5,31.9
		c-5.9,27.9-8.5,54.2-7.8,79v196h117.2v81.8h-117.2v373.9h-84.6V729.9h-38.8v-81.8h38.8V426.1c-0.6-50.7,9.6-93.4,30.9-127.9
		c20.9-33.6,58-50.7,111.5-51.4c20.9,0,40.7,3.8,59.4,11.4V347.1z"/>
</g>
<g>
	<polygon class="st2" points="693.4,702.4 600,913.7 506.6,1125 391.5,1013.2 276.4,901.4 484.9,801.9 	"/>
	<polygon class="st1" points="469.8,934.8 488,1031.2 506.2,1127.6 391.1,1015.8 276,904 372.9,919.4 	"/>
</g>
<g>
	<polygon class="st3" points="1059,311.6 947.5,513.9 836,716.2 731.2,594.8 626.3,473.4 842.6,392.5 	"/>
	<polygon class="st1" points="816,523.6 825.7,621.2 835.4,718.8 730.5,597.4 625.6,476 720.8,499.8 	"/>
</g>
</svg>
